# xmcd
#
# Track frame offsets:
#	150
#	23412
#	52780
#	73150
#
# Disc length: 1406 seconds
#
# Revision: 0
# Processed by: cddbd v1.5.2PL0 Copyright (c) Steve Scherf et al.
# Submitted via: dBpowerAMP V4.0
#
DISCID=27057c04
DTITLE=Arcangels - Living In A Dream
DYEAR=2009
DGENRE=Blues -  Blues Texas Style
TTITLE0=Crave And Wonder
TTITLE1=What I'm Looking For
TTITLE2=Too Many People
TTITLE3=Spanish Moon
EXTD=
EXTT0=
EXTT1=
EXTT2=
EXTT3=
PLAYORDER=
